#!OML:ASF H:\Male1\Project 1\Capture day 1\Session 1\Male1.ASF
:FULLY-SPECIFIED
:DEGREES
844
root 19.4066 15.3839 -0.423052 355.44 230.752 4.7424
lowerback 5.41018 1.85045 2.46146
upperback 4.57682 2.36919 -0.0501437
thorax 1.78829 1.17063 -1.5181
lowerneck -5.16848 2.15346 6.97963
upperneck 5.57609 2.86849 -8.69534
head 2.72262 1.25684 -3.65636
rclavicle -2.57923e-014 4.17448e-015
rhumerus -34.4733 4.01051 -89.4248
rradius 31.5785
rwrist -21.3717
rhand -20.2253 0.22238
rfingers 7.12502
rthumb 6.12231 -29.6692
lclavicle -2.57923e-014 4.17448e-015
lhumerus -35.5272 22.2175 65.7211
lradius 16.1393
lwrist -24.954
lhand -15.7933 12.5672
lfingers 7.12502
lthumb 10.3996 42.29
rfemur -0.042842 -21.1773 22.036
rtibia 46.4039
rfoot -21.8746 -30.5699
rtoes 3.09452
lfemur -12.2134 -9.29313 -27.4448
ltibia 26.5205
lfoot -22.4462 24.3189
ltoes 13.906
845
root 19.2954 15.3844 -0.51348 355.974 232.028 3.67519
lowerback 5.46831 1.86005 1.43363
upperback 4.57377 2.34934 -0.164773
thorax 1.71052 1.1367 -1.06329
lowerneck -5.54379 2.44065 7.51103
upperneck 6.44918 3.26508 -9.13725
head 3.09246 1.43081 -3.86035
rclavicle 9.48203e-014 -1.19271e-015
rhumerus -34.4968 3.74026 -89.2552
rradius 32.1242
rwrist -21.2988
rhand -19.6034 0.539636
rfingers 7.12502
rthumb 6.72266 -29.3336
lclavicle 9.48203e-014 -1.19271e-015
lhumerus -35.6685 24.073 65.2659
lradius 16.1172
lwrist -24.6826
lhand -17.1904 13.0552
lfingers 7.12502
lthumb 9.05164 42.841
rfemur -1.57305 -20.1794 20.5045
rtibia 50.3038
rfoot -17.4835 -28.9015
rtoes 5.39185
lfemur -10.6605 -10.0056 -28.4869
ltibia 25.3301
lfoot -22.7516 23.6913
ltoes 15.2315
846
root 19.1836 15.3741 -0.59986 356.986 233.346 1.91114
lowerback 5.58441 1.86166 0.106172
upperback 4.68619 2.29703 -0.419704
thorax 1.71551 1.07782 -0.583529
lowerneck -5.61363 2.77699 7.95251
upperneck 6.80822 3.7154 -9.38916
head 3.26259 1.64965 -3.98851
rclavicle -3.25013e-014 2.5842e-014
rhumerus -34.3423 3.41507 -89.1243
rradius 32.5508
rwrist -21.3429
rhand -19.4386 0.899442
rfingers 7.12502
rthumb 6.8818 -28.9687
lclavicle -3.25013e-014 2.5842e-014
lhumerus -36.1341 24.3832 65.8373
lradius 17.7982
lwrist -22.3603
lhand -17.0725 14.2536
lfingers 7.12502
lthumb 9.16534 44.0344
rfemur -2.92334 -18.7927 18.6863
rtibia 53.6848
rfoot -13.9703 -26.6761
rtoes -3.12396
lfemur -8.96869 -10.5744 -29.9728
ltibia 24.1023
lfoot -22.5735 23.1913
ltoes 16.7296
847
root 19.078 15.3422 -0.676168 357.753 234.456 0.390134
lowerback 5.82003 1.8981 -0.917748
upperback 4.89938 2.289 -0.643918
thorax 1.77353 1.04252 -0.245717
lowerneck -5.70936 3.12172 8.27275
upperneck 7.01478 4.168 -9.49049
head 3.3895 1.87442 -4.04771
rclavicle -1.11071e-013 8.94531e-015
rhumerus -33.8834 2.98005 -89.0006
rradius 32.6333
rwrist -21.2354
rhand -19.8465 1.15769
rfingers 7.12502
rthumb 6.488 -28.7229
lclavicle -1.11071e-013 8.94531e-015
lhumerus -35.4299 25.1749 66.3732
lradius 17.551
lwrist -20.7103
lhand -16.6754 14.883
lfingers 7.12502
lthumb 9.5485 44.6466
rfemur -4.36851 -16.763 17.4059
rtibia 56.5744
rfoot -11.9942 -24.5707
rtoes -7.67565
lfemur -7.17775 -10.5724 -31.2943
ltibia 23.0538
lfoot -21.9168 22.736
ltoes 16.6053
848
root 18.9636 15.3449 -0.754096 358.184 235.654 -0.407859
lowerback 5.93015 1.85487 -1.40672
upperback 5.01902 2.20311 -0.778822
thorax 1.82358 0.98384 -0.109189
lowerneck -5.8607 3.477 8.71314
upperneck 7.33503 4.63416 -9.69748
head 3.56834 2.10189 -4.15671
rclavicle 6.50026e-014 -8.74653e-015
rhumerus -33.347 2.52287 -88.9837
rradius 32.5015
rwrist -21.1161
rhand -20.6569 1.28413
rfingers 7.12502
rthumb 5.70564 -28.6191
lclavicle 6.50026e-014 -8.74653e-015
lhumerus -34.6503 25.4544 67.26
lradius 17.5985
lwrist -19.315
lhand -16.6795 14.9227
lfingers 7.12502
lthumb 9.54455 44.6865
rfemur -5.92131 -14.5041 16.874
rtibia 58.7476
rfoot -11.0034 -22.8071
rtoes -16.1789
lfemur -6.13152 -11.0935 -31.9789
ltibia 22.5207
lfoot -21.3644 22.5924
ltoes 15.7242
849
root 18.8531 15.3331 -0.829874 357.808 236.923 -0.125634
lowerback 6.0147 1.73451 -1.21302
upperback 5.0546 2.04929 -0.78657
thorax 1.82175 0.912223 -0.220565
lowerneck -5.88283 3.8352 9.28739
upperneck 7.75013 5.10927 -9.95312
head 3.76298 2.33749 -4.3027
rclavicle -5.55106e-014 2.5842e-014
rhumerus -32.894 2.12163 -89.0456
rradius 32.3133
rwrist -21.1115
rhand -21.3881 1.23874
rfingers 7.12502
rthumb 4.9996 -28.6823
lclavicle -5.55106e-014 2.5842e-014
lhumerus -33.8331 25.0097 68.4854
lradius 17.8544
lwrist -18.127
lhand -17.0135 14.572
lfingers 7.12502
lthumb 9.22228 44.3504
rfemur -7.54154 -12.0411 17.2112
rtibia 60.4414
rfoot -9.6218 -21.9914
rtoes -22.5506
lfemur -5.31446 -11.459 -32.0252
ltibia 22.5133
lfoot -21.5685 21.9336
ltoes 14.595
850
root 18.7425 15.3202 -0.905049 356.76 238.164 0.90261
lowerback 6.12881 1.63965 -0.631699
upperback 5.10485 1.94531 -0.68494
thorax 1.82692 0.874851 -0.438841
lowerneck -5.90498 4.12364 9.6772
upperneck 8.32125 5.49993 -10.0469
head 3.99067 2.53168 -4.37174
rclavicle 3.43401e-014 -6.75868e-015
rhumerus -32.4305 1.57601 -88.9969
rradius 32.0334
rwrist -21.0599
rhand -21.7341 1.21876
rfingers 7.12502
rthumb 4.66551 -28.7099
lclavicle 3.43401e-014 -6.75868e-015
lhumerus -32.7902 23.8215 70.1808
lradius 18.2312
lwrist -17.1307
lhand -17.2116 14.3821
lfingers 7.12502
lthumb 9.03116 44.1688
rfemur -9.08974 -9.26893 18.1566
rtibia 61.6161
rfoot -10.333 -22.5548
rtoes -19.4392
lfemur -4.65822 -11.853 -31.6382
ltibia 22.8235
lfoot -21.7327 21.2394
ltoes 13.1552
851
root 18.63 15.3094 -0.981178 355.882 239.603 1.91303
lowerback 6.15887 1.48126 -0.206684
upperback 5.09992 1.75585 -0.528346
thorax 1.81262 0.791527 -0.508002
lowerneck -5.93204 4.52085 9.70814
upperneck 8.77727 6.03334 -9.80282
head 4.18103 2.80258 -4.26376
rclavicle -6.2816e-014 1.63003e-014
rhumerus -32.0456 1.19509 -88.8951
rradius 31.8835
rwrist -21.0816
rhand -22.0946 0.732624
rfingers 7.12502
rthumb 4.31746 -29.2034
lclavicle -6.2816e-014 1.63003e-014
lhumerus -31.6095 22.2355 72.2088
lradius 18.6506
lwrist -16.3262
lhand -17.5738 14.0408
lfingers 7.12502
lthumb 8.68165 43.8422
rfemur -10.8116 -6.63377 19.0968
rtibia 62.4585
rfoot -11.464 -23.6276
rtoes -16.6946
lfemur -4.22498 -12.1449 -31.2955
ltibia 23.1484
lfoot -20.8219 21.0416
ltoes 7.3852
852
root 18.5154 15.3038 -1.0597 355.76 241.337 2.16725
lowerback 6.12415 1.26912 -0.271234
upperback 5.03881 1.47858 -0.464164
thorax 1.76283 0.653499 -0.393505
lowerneck -5.68689 4.84066 9.55509
upperneck 8.95786 6.46351 -9.34513
head 4.21834 3.03653 -4.06968
rclavicle -4.65156e-014 5.56597e-015
rhumerus -31.9407 1.16926 -88.9039
rradius 32.1666
rwrist -21.5135
rhand -22.2549 -0.0426372
rfingers 7.12502
rthumb 4.16263 -29.9817
lclavicle -4.65156e-014 5.56597e-015
lhumerus -30.3913 20.054 74.4703
lradius 19.172
lwrist -15.3321
lhand -18.0733 13.4674
lfingers 7.12502
lthumb 8.19956 43.2883
rfemur -12.555 -4.37465 19.4607
rtibia 62.9909
rfoot -11.2712 -24.3834
rtoes -20.6294
lfemur -3.83276 -12.6535 -31.3708
ltibia 23.3945
lfoot -20.4559 20.532
ltoes 3.754
853
root 18.401 15.2921 -1.14178 355.89 242.936 1.94612
lowerback 6.25778 1.20117 -0.575026
upperback 5.00653 1.37691 -0.486517
thorax 1.64788 0.596218 -0.244785
lowerneck -5.3659 4.98905 9.60383
upperneck 9.06328 6.65755 -9.02785
head 4.20666 3.15637 -3.97142
rclavicle -3.62782e-015 7.95139e-016
rhumerus -32.0723 1.1598 -88.9384
rradius 32.6212
rwrist -21.9687
rhand -21.6727 0.200717
rfingers 7.12502
rthumb 4.72477 -29.7266
lclavicle -3.62782e-015 7.95139e-016
lhumerus -29.2649 17.2381 76.8108
lradius 19.9356
lwrist -14.1479
lhand -18.2815 13.0399
lfingers 7.12502
lthumb 7.99868 42.8685
rfemur -14.0912 -1.85848 19.5955
rtibia 63.2517
rfoot -13.0941 -24.9355
rtoes -19.2357
lfemur -3.08835 -13.2166 -31.6759
ltibia 23.3756
lfoot -20.7174 19.7478
ltoes 4.26356
854
root 18.2804 15.2694 -1.22505 355.962 244.363 1.6652
lowerback 6.47328 1.23707 -0.851463
upperback 5.04352 1.40736 -0.521363
thorax 1.56098 0.603701 -0.131212
lowerneck -5.50461 5.09221 10.0097
upperneck 9.53972 6.78088 -9.13686
head 4.40415 3.21905 -4.05899
rclavicle -9.44227e-015 -1.43125e-014
rhumerus -32.3128 0.977805 -88.8298
rradius 33.0357
rwrist -21.8773
rhand -20.9063 1.17167
rfingers 7.12502
rthumb 5.46484 -28.7379
lclavicle -9.44227e-015 -1.43125e-014
lhumerus -28.1789 14.1212 79.1305
lradius 20.8369
lwrist -12.8405
lhand -17.9448 12.6883
lfingers 7.12502
lthumb 8.32361 42.5043
rfemur -15.5058 0.92421 19.7502
rtibia 63.2167
rfoot -14.1879 -25.6625
rtoes -20.0581
lfemur -2.07518 -13.7851 -32.0559
ltibia 23.1692
lfoot -20.8625 19.3311
ltoes 3.63281
